<svg width="111" height="111" viewBox="0 0 111 111" fill="none" xmlns="http://www.w3.org/2000/svg">
<g clip-path="url(#clip0_203_48)">
<path d="M54.4141 17C56.1438 17 57.8465 17.1167 59.5156 17.3379C65.9769 32.0116 77.7906 43.7954 92.4824 50.2148C92.7082 51.8974 92.8271 53.6141 92.8271 55.3584C92.8271 57.2315 92.6895 59.0727 92.4297 60.874C77.8871 67.2441 66.1711 78.8726 59.6826 93.3555C57.9601 93.5914 56.2015 93.7168 54.4141 93.7168C52.3692 93.7168 50.3617 93.5544 48.4033 93.2471C41.9846 79.1452 30.5962 67.7848 16.4766 61.4062C16.1641 59.4361 16 57.4163 16 55.3584C16 53.6051 16.1195 51.8794 16.3477 50.1885C30.8199 43.689 42.4359 31.9619 48.7949 17.4092C50.629 17.1408 52.5054 17 54.4141 17Z" fill="#F4AA49"/>
<path d="M110.769 63.3818C107.23 87.9209 87.715 107.302 63.0889 110.675C72.5351 89.5872 89.5939 72.6557 110.769 63.3818ZM0.188477 64.1582C20.7455 73.4444 37.3253 89.9843 46.6699 110.516C22.814 106.772 3.96531 87.9703 0.188477 64.1582ZM62.8467 0C87.7677 3.30212 107.504 22.9911 110.843 47.8662C89.4527 38.5204 72.2532 21.364 62.8467 0ZM47.2422 0.104492C37.9844 21.2926 21.0709 38.3659 0 47.8281C3.31953 23.2212 22.689 3.69693 47.2422 0.104492Z" fill="#F4AA49"/>
</g>
<defs>
<clipPath id="clip0_203_48">
<rect width="111" height="111" fill="white"/>
</clipPath>
</defs>
</svg>
