<svg width="192" height="192" viewBox="0 0 192 192" fill="none" xmlns="http://www.w3.org/2000/svg">
<path d="M162.287 22.4102H29.6833V169.649H162.287V22.4102Z" fill="white"/>
<path d="M162.287 22.4102H29.6833V169.649H162.287V22.4102Z" stroke="#00469B" stroke-width="2.9918"/>
<path d="M131.043 58.8369H61.1631V128.717H131.043V58.8369Z" fill="#E62310"/>
<path d="M82.719 101.948C85.6049 106.306 90.5226 109.163 96.1177 109.163C104.982 109.163 112.196 101.977 112.196 93.0842C112.196 92.2302 112.137 91.3763 111.99 90.5517C111.254 85.8401 108.456 81.8057 104.569 79.4204C102.125 77.8891 99.2098 77.0352 96.1177 77.0352C93.3791 77.0352 90.8171 77.7125 88.5496 78.9198C86.665 79.921 84.9864 81.3051 83.6318 82.9542C81.7472 85.2511 80.5104 88.1076 80.1276 91.1996C80.0687 91.818 80.0098 92.4364 80.0098 93.0842C80.0392 96.3529 81.0404 99.3861 82.719 101.948Z" fill="#5E8FCB"/>
<path d="M91.7594 87.99L91.465 88.5495L90.7288 88.1373L90.9054 87.8428L91.7594 87.99Z" fill="#00469B"/>
<path d="M96.0882 84.8389L97.0011 85.1333L97.06 85.7812L94.7925 87.3125L93.644 87.018V86.6057L94.3508 85.9579L96.0882 84.8389Z" fill="#00469B"/>
<path d="M94.8514 84.9271L94.1152 85.6928L93.1729 86.2817L92.79 86.0462L93.4968 85.0449L94.1152 84.986L94.498 84.2793H94.7041L94.8514 84.9271Z" fill="#00469B"/>
<path d="M96.2061 82.6307L95.0576 83.8086L94.5276 83.4553L96 82.2773L96.2061 82.6307Z" fill="#00469B"/>
<path d="M85.4577 87.6073L85.3104 88.8147L84.8098 88.7558L85.1337 86.8711L85.3693 86.9005L85.4577 87.2539V87.6073Z" fill="#00469B"/>
<path d="M85.6637 89.1969L85.5459 89.8153L85.2219 89.7858L85.0747 89.5208L85.1631 89.0791L85.6637 89.1969Z" fill="#00469B"/>
<path d="M85.6931 90.1104L85.7225 90.4637H85.428L85.3691 90.1398L85.6931 90.1104Z" fill="#00469B"/>
<path d="M85.8109 90.7285L85.8993 90.9346L85.6342 91.0524L85.5459 90.8463L85.8109 90.7285Z" fill="#00469B"/>
<path d="M85.6931 91.435V91.2877L85.8109 91.1699L85.8993 91.3466C85.9287 91.3466 85.7226 91.435 85.6931 91.435Z" fill="#00469B"/>
<path d="M96.2944 90.4337L96.4122 90.2275L96.7361 90.4042L96.6478 90.6987L96.7656 90.787L96.6183 91.6116L95.9705 91.5527L96.3827 90.5515L96.2944 90.4337Z" fill="#00469B"/>
<path d="M95.6466 90.9053L95.8821 90.9642L95.7938 91.2881L95.4404 91.1998L95.6466 90.9053Z" fill="#00469B"/>
<path d="M103.332 103.922C103.156 104.275 103.038 104.422 102.714 104.775C102.361 105.158 101.713 105.512 101.507 105.6L100.682 105.953L100.476 105.983L100.388 105.659L101.801 104.245L102.449 104.098L102.95 103.804L103.332 103.922Z" fill="#00469B"/>
<path d="M102.596 105.806L102.361 105.982L102.155 105.776C102.155 105.776 102.42 105.629 102.42 105.6L102.596 105.806Z" fill="#00469B"/>
<path d="M97.3251 93.585L97.2074 94.0856L97.0012 94.0561L97.0307 93.6733L97.2074 93.7028L97.2662 93.585H97.3251Z" fill="#00469B"/>
<path d="M85.5753 91.7886L85.2808 91.9064L85.2219 91.5825L85.487 91.4941L85.5753 91.7886Z" fill="#00469B"/>
<path d="M82.7189 101.948C81.0404 99.4153 80.0686 96.3527 80.0686 93.084C80.0686 92.4361 80.098 91.8177 80.1864 91.1993L81.4527 89.7858L82.7189 89.6091L82.4539 88.814L83.249 86.0165L83.5729 85.0447L83.6318 82.9245C84.9864 81.2754 86.6355 79.8913 88.5496 78.8901L89.3447 79.0373L91.5827 79.3613C91.5827 79.3613 93.8208 79.8619 94.9398 79.7735C96.5005 79.6557 97.4134 79.0373 97.7668 78.8018L97.914 78.8901L97.3545 79.3318L97.7962 79.5085L97.9729 80.0091L97.9435 80.7159L97.7668 80.8631L96.7655 81.511L95.4993 82.0999L94.0858 83.4545L94.4097 83.749L93.9385 84.6619L93.379 84.603L93.4085 84.338L92.5251 83.7784L91.5827 84.7502L92.7901 84.9858L92.8784 85.3097L92.0833 86.2815L92.849 86.576L92.0244 87.7245L90.876 87.6361L90.4637 88.0778L89.1091 87.3122L86.9005 86.576L86.3704 87.5183L85.9876 87.2238L86.2527 86.5465L86.8122 86.1048C86.8122 86.1048 86.1349 84.5441 86.1054 84.5146C85.8993 84.3674 85.6637 84.1613 85.3987 84.0729C85.2809 84.0435 85.1925 84.0435 85.1042 84.0435C84.7508 84.0435 84.2208 84.3674 84.2208 84.6913L84.2502 85.1625L84.2797 85.2803L84.8686 85.7809L84.8097 86.1343L84.0146 86.1637L83.0134 88.6373L84.5447 90.9343L84.7508 91.3465C84.7803 91.376 85.1336 93.0545 85.3103 93.614C85.6343 94.7036 85.7226 96.176 85.752 96.2054L87.3422 98.5318L87.2244 99.5036L84.7803 101.329L83.8674 101.094L82.7189 101.948Z" fill="#00469B"/>
<path d="M105.04 80.2741L104.334 80.7158L103.745 81.3931L102.007 80.3919L104.54 79.8618L105.04 80.2741ZM104.569 79.3906L102.596 79.5968L102.302 79.479L101.065 79.5968L100.741 79.5084L98.5619 80.009L98.4735 80.7747L101.094 83.6311L101.036 84.2495L100.653 84.2201L100.299 84.9857L100.859 87.4593L100.034 88.225L100.152 88.9317H99.8576L99.622 88.4311L98.6208 88.1072L97.914 89.0495L97.1778 89.7857L97.5018 90.3158L98.0907 90.2569L98.2085 90.5219L98.4441 90.4925L98.8858 89.2851L99.1508 89.4618L98.8564 90.1096L98.9742 90.2274L98.768 90.9047L98.0907 91.0814C98.0318 90.8458 97.914 90.6397 97.914 90.6397H97.6785L97.6196 91.1403L97.2367 91.2581L97.0011 91.6115C96.9128 91.7293 96.6772 91.7882 96.4416 91.7587C96.2355 91.7587 95.8821 91.6409 95.8821 91.6409C95.8821 91.6409 95.7643 91.8176 95.7643 91.7882L95.8527 91.8765C95.8527 91.8765 95.9999 91.9943 95.941 92.2004C95.9116 92.3771 95.7349 92.5538 95.4404 92.5538C95.3521 92.5538 95.2637 92.5538 95.1754 92.5244L95.0281 92.4949L94.6748 93.3784L95.6171 94.0851C95.6465 94.1145 96.0588 93.7906 96.5594 93.3195C96.7067 93.1722 97.0011 93.0839 97.1778 93.0839C97.2956 93.0839 97.384 93.1428 97.5312 93.2017C97.8846 93.3784 98.0318 93.9673 98.0318 93.9673L97.8846 93.9968L97.9435 94.1146L98.4146 94.0262L98.0318 93.0544L98.1496 93.025L98.9742 93.8201L101.271 94.4679L100.829 95.6458L99.033 95.1747L98.6208 95.2336L97.7079 94.6446L94.7337 94.2029L93.2024 94.9685C92.9962 95.0863 92.7901 95.3219 92.5545 95.7931C92.1128 96.6471 91.8772 97.1477 91.8183 97.4422L91.73 97.8544L92.6723 99.6213L94.9398 101.918C95.0576 102.036 94.8809 102.507 94.557 103.067C94.4686 103.214 94.2919 103.656 94.0564 104.362C93.9091 104.863 93.6735 105.246 93.4085 105.57C92.7901 106.218 92.4662 106.6 92.4662 106.659L92.0834 107.749C92.0834 107.778 92.1423 107.808 92.2011 107.837C92.7607 108.014 93.3202 108.132 93.8797 108.132C94.7337 108.132 95.676 107.896 96.53 107.454C97.0011 107.219 97.5018 106.924 97.9729 106.6C98.4441 106.277 98.8858 105.953 99.2097 105.658C99.2686 105.599 99.5042 105.393 99.9165 105.01C100.24 104.716 100.535 104.48 100.8 104.362C100.918 104.304 101.006 104.245 101.036 104.186L101.831 102.213L103.568 100.534L104.451 99.0618L104.216 98.6201L103.332 98.7968L101.124 96.2937L101.654 96.2348L103.715 98.3845L104.834 97.5011L105.541 96.4704L105.865 95.9403L105.983 95.6458L105.158 94.998L104.216 95.263L103.686 94.7918L104.893 94.4385L105.836 94.5857L107.308 94.2618L109.222 95.8225H109.899C110.017 95.263 110.047 95.0569 110.047 94.4974C110.047 93.879 109.958 93.2311 109.811 92.5833C109.723 92.2593 109.693 92.0532 109.664 91.9649L109.634 91.7293L110.017 91.4053L110.812 91.582L112.078 90.4925C111.254 85.8397 108.456 81.8053 104.569 79.3906Z" fill="#00469B"/>
<path d="M67.6122 38.1641H70.9692L75.1508 48.3825H71.9704L71.352 46.7334H67.1999L66.5815 48.3825H63.4011L67.6122 38.1641ZM70.7042 44.8487L69.2907 40.8144L67.8772 44.8487H70.7042Z" fill="#00469B"/>
<path d="M79.0969 38.1641H83.6908C87.254 38.1641 88.6675 41.0499 88.6675 43.4058C88.6675 45.7322 87.4012 48.3825 84.2797 48.3825H79.0969V38.1641ZM83.1607 45.9383C84.7215 45.9383 85.4577 45.0843 85.4577 43.2585C85.4577 41.9039 84.8981 40.5788 83.1607 40.5788H82.3067V45.9383H83.1607Z" fill="#00469B"/>
<path d="M93.3201 38.1641H100.211V40.3138H96.5299V42.1101H99.8869V44.2598H96.5299V46.2033H100.27V48.353H93.3201V38.1641Z" fill="#00469B"/>
<path d="M108.398 48.353H105.188V38.1641H108.044L110.812 42.2868L113.551 38.1641H116.437V48.353H113.198L113.286 42.8757L113.256 42.8463L110.812 46.5861L108.339 42.8463L108.309 42.8757L108.398 48.353Z" fill="#00469B"/>
<path d="M121.649 38.1641H128.54V40.3138H124.888V42.1101H128.216V44.2598H124.888V46.2033H128.599V48.353H121.649V38.1641Z" fill="#00469B"/>
<path d="M46.0563 145.207H45.1728L44.3777 143.263H41.8452L41.109 145.207H40.2256L42.7875 138.552H43.3765L46.0563 145.207ZM42.1986 142.409H44.0538L43.082 140.024L42.1986 142.409Z" fill="#00469B"/>
<path d="M50.3853 141.526H49.5902C49.8847 141.85 50.0024 142.115 50.0024 142.468C50.0024 142.822 49.8258 143.234 49.6491 143.44C49.119 144.059 48.0589 143.764 48.0589 144.265C48.0589 144.5 48.4712 144.648 49.2663 144.824C50.0908 145.001 50.4147 145.472 50.4147 146.032C50.4147 146.886 49.7374 147.416 48.5595 147.416C47.4994 147.416 46.7632 146.856 46.7632 146.09C46.7632 145.443 47.0577 145.06 47.735 144.883C47.4699 144.706 47.3521 144.53 47.3521 144.324C47.3521 144.029 47.5877 143.794 47.9705 143.705C47.6761 143.558 47.4699 143.381 47.3227 143.146C47.1755 142.91 47.1166 142.645 47.1166 142.321C47.1166 141.379 47.7644 140.819 48.8245 140.819H50.4442V141.526H50.3853ZM48.5301 141.585C48.0883 141.585 47.7644 141.938 47.7644 142.38C47.7644 142.851 48.0883 143.175 48.5595 143.175C49.0012 143.175 49.3251 142.822 49.3251 142.351C49.2957 141.938 48.9423 141.585 48.5301 141.585ZM48.3534 145.413C47.8233 145.413 47.4699 145.678 47.4699 146.061C47.4699 146.503 47.8528 146.738 48.5595 146.738C49.2368 146.738 49.6491 146.503 49.6491 146.12C49.6196 145.56 48.8245 145.413 48.3534 145.413Z" fill="#00469B"/>
<path d="M54.9202 144.765C54.449 145.118 54.0367 145.265 53.3594 145.265C52.1521 145.265 51.4453 144.146 51.4453 142.939C51.4453 141.614 52.1815 140.73 53.2711 140.73C54.3018 140.73 54.9791 141.526 54.9791 143.116H52.211C52.3287 143.97 52.7705 144.411 53.5361 144.411C54.0073 144.411 54.449 144.235 54.9202 143.881V144.765ZM54.2134 142.586C54.184 141.938 53.86 141.496 53.3005 141.496C52.7116 141.496 52.3582 141.879 52.2404 142.586H54.2134Z" fill="#00469B"/>
<path d="M57.2171 141.409C57.541 140.996 57.9533 140.761 58.395 140.761C59.1312 140.761 59.7201 141.32 59.7201 142.528V145.207H58.9545V142.528C58.9545 141.88 58.66 141.467 58.1888 141.467C57.8355 141.467 57.5704 141.644 57.2171 142.086V145.207H56.4514V140.849H57.2171V141.409Z" fill="#00469B"/>
<path d="M64.3435 141.968C63.9018 141.644 63.6073 141.556 63.2539 141.556C62.5472 141.556 62.0466 142.145 62.0466 143.028C62.0466 143.941 62.5766 144.471 63.3717 144.471C63.6956 144.471 64.0196 144.383 64.4024 144.177V145.031C64.1374 145.178 63.6367 145.296 63.2245 145.296C62.0466 145.296 61.2515 144.383 61.2515 143.117C61.2515 141.674 61.9877 140.761 63.195 140.761C63.6367 140.761 63.9607 140.879 64.3435 141.055V141.968Z" fill="#00469B"/>
<path d="M69.2317 144.765C68.7605 145.118 68.3482 145.265 67.6709 145.265C66.4636 145.265 65.7568 144.146 65.7568 142.939C65.7568 141.614 66.493 140.73 67.5826 140.73C68.6133 140.73 69.2906 141.526 69.2906 143.116H66.5225C66.6403 143.97 67.082 144.411 67.8476 144.411C68.3188 144.411 68.7605 144.235 69.2022 143.881V144.765H69.2317ZM68.5249 142.586C68.4955 141.938 68.1716 141.496 67.6121 141.496C67.0231 141.496 66.6697 141.879 66.5519 142.586H68.5249Z" fill="#00469B"/>
<path d="M77.0061 145.207H75.357C74.1791 145.207 73.4429 144.323 73.4429 142.939C73.4429 141.673 74.2674 140.789 75.3864 140.789C75.6515 140.789 75.887 140.848 76.211 140.966V138.61H76.9766V145.207H77.0061ZM76.211 141.702C75.9459 141.585 75.7398 141.526 75.4748 141.526C74.7386 141.526 74.2085 142.115 74.2085 143.028C74.2085 143.852 74.503 144.441 75.4159 144.441H76.211V141.702Z" fill="#00469B"/>
<path d="M81.9827 144.765C81.5115 145.118 81.0992 145.265 80.4219 145.265C79.2146 145.265 78.5078 144.146 78.5078 142.939C78.5078 141.614 79.244 140.73 80.3336 140.73C81.3642 140.73 82.0416 141.526 82.0416 143.116H79.2735C79.3912 143.97 79.833 144.411 80.5986 144.411C81.0698 144.411 81.5115 144.235 81.9532 143.881V144.765H81.9827ZM81.2759 142.586C81.2465 141.938 80.9225 141.496 80.363 141.496C79.7741 141.496 79.4207 141.879 79.3029 142.586H81.2759Z" fill="#00469B"/>
<path d="M87.136 138.581H86.3704V145.177H87.136V138.581Z" fill="#00469B"/>
<path d="M88.8147 139.405V138.257H89.5803V139.405L89.3742 140.73H89.0208L88.8147 139.405Z" fill="#00469B"/>
<path d="M94.7041 139.435H92.1716V141.437H94.6158V142.291H92.1716V144.353H94.7925V145.207H91.3176V138.581H94.7041V139.435Z" fill="#00469B"/>
<path d="M97.0012 141.409C97.3252 140.996 97.7669 140.761 98.1792 140.761C98.9154 140.761 99.5043 141.32 99.5043 142.528V145.207H98.7387V142.528C98.7387 141.88 98.4442 141.467 97.973 141.467C97.6197 141.467 97.3546 141.644 97.0012 142.086V145.207H96.2356V140.849H97.0012V141.409Z" fill="#00469B"/>
<path d="M100.594 140.849H101.448L102.478 143.528L103.509 140.849H104.363L102.626 145.295H102.361L100.594 140.849Z" fill="#00469B"/>
<path d="M106.365 145.207H105.6V140.849H106.365V145.207ZM105.983 140.054C105.718 140.054 105.511 139.818 105.511 139.553C105.511 139.259 105.718 139.053 105.983 139.053C106.248 139.053 106.454 139.288 106.454 139.553C106.454 139.818 106.248 140.054 105.983 140.054Z" fill="#00469B"/>
<path d="M108.986 140.849V141.85H109.016C109.399 141.085 109.781 140.761 110.135 140.761C110.459 140.761 110.753 140.937 111.077 141.261L110.665 141.998C110.429 141.733 110.135 141.585 109.929 141.585C109.399 141.585 108.986 142.174 108.986 142.91V145.178H108.221V140.82H108.986V140.849Z" fill="#00469B"/>
<path d="M115.995 142.969C115.995 144.353 115.141 145.266 113.875 145.266C112.667 145.266 111.813 144.294 111.813 142.969C111.813 141.733 112.697 140.761 113.875 140.761C115.082 140.761 115.995 141.674 115.995 142.969ZM112.609 142.969C112.609 143.882 113.109 144.501 113.875 144.501C114.699 144.501 115.2 143.912 115.2 142.969C115.2 142.115 114.64 141.526 113.875 141.526C113.139 141.526 112.609 142.145 112.609 142.969Z" fill="#00469B"/>
<path d="M118.262 141.409C118.586 140.996 119.028 140.761 119.44 140.761C120.177 140.761 120.766 141.32 120.766 142.528V145.207H120V142.528C120 141.88 119.705 141.467 119.234 141.467C118.881 141.467 118.616 141.644 118.262 142.086V145.207H117.497V140.849H118.262V141.409Z" fill="#00469B"/>
<path d="M123.269 141.409C123.593 140.996 124.005 140.761 124.446 140.761C125.183 140.761 125.772 141.32 125.772 142.528V145.207H125.006V142.528C125.006 141.88 124.712 141.467 124.24 141.467C123.887 141.467 123.622 141.644 123.269 142.086V145.207H122.503V140.849H123.269V141.409Z" fill="#00469B"/>
<path d="M130.778 144.765C130.307 145.118 129.894 145.265 129.217 145.265C128.01 145.265 127.303 144.146 127.303 142.939C127.303 141.614 128.039 140.73 129.129 140.73C130.159 140.73 130.837 141.526 130.837 143.116H128.098C128.216 143.97 128.658 144.411 129.423 144.411C129.894 144.411 130.336 144.235 130.807 143.881V144.765H130.778ZM130.101 142.586C130.071 141.938 129.747 141.496 129.188 141.496C128.599 141.496 128.245 141.879 128.128 142.586H130.101Z" fill="#00469B"/>
<path d="M133.104 140.849V141.409C133.516 140.967 133.87 140.761 134.253 140.761C134.753 140.761 135.166 141.026 135.431 141.556C135.754 141.114 136.167 140.761 136.726 140.761C137.521 140.761 138.022 141.438 138.022 142.469V145.207H137.227V142.528C137.227 141.88 136.874 141.497 136.402 141.497C136.137 141.497 135.813 141.733 135.519 142.056V145.207H134.753V142.498C134.753 141.791 134.429 141.497 134.047 141.497C133.664 141.497 133.399 141.644 133.075 142.056V145.207H132.309V140.849H133.104Z" fill="#00469B"/>
<path d="M142.999 144.765C142.528 145.118 142.086 145.265 141.438 145.265C140.231 145.265 139.524 144.146 139.524 142.939C139.524 141.614 140.26 140.73 141.35 140.73C142.38 140.73 143.058 141.526 143.058 143.116H140.319C140.437 143.97 140.879 144.411 141.644 144.411C142.115 144.411 142.557 144.235 143.028 143.881V144.765H142.999ZM142.292 142.586C142.263 141.938 141.939 141.496 141.379 141.496C140.79 141.496 140.437 141.879 140.319 142.586H142.292Z" fill="#00469B"/>
<path d="M145.296 141.409C145.62 140.996 146.061 140.761 146.474 140.761C147.21 140.761 147.799 141.32 147.799 142.528V145.207H147.033V142.528C147.033 141.88 146.739 141.467 146.267 141.467C145.914 141.467 145.649 141.644 145.296 142.086V145.207H144.53V140.849H145.296V141.409Z" fill="#00469B"/>
<path d="M150.478 140.848H151.715V141.614H150.478V143.852C150.478 144.353 150.802 144.5 151.038 144.5C151.303 144.5 151.598 144.382 151.921 144.176V144.971C151.656 145.148 151.244 145.266 150.979 145.266C150.125 145.266 149.713 144.677 149.713 143.911V141.614H149.006V141.526L150.449 139.936V140.848H150.478Z" fill="#00469B"/>
<path d="M43.4944 157.987C43.0232 158.341 42.6109 158.488 41.9336 158.488C40.7263 158.488 40.0195 157.369 40.0195 156.162C40.0195 154.837 40.7557 153.953 41.8453 153.953C42.876 153.953 43.5533 154.748 43.5533 156.338H40.7852C40.903 157.192 41.3447 157.634 42.1103 157.634C42.5815 157.634 43.0232 157.457 43.4944 157.104V157.987ZM42.7876 155.779C42.7582 155.131 42.4343 154.689 41.8747 154.689C41.2858 154.689 40.9324 155.072 40.8146 155.779H42.7876Z" fill="#00469B"/>
<path d="M45.7913 154.042H47.0281V154.807H45.7913V157.045C45.7913 157.546 46.1153 157.693 46.3508 157.693C46.6159 157.693 46.9103 157.576 47.2343 157.369V158.164C46.9692 158.341 46.557 158.459 46.2919 158.459C45.438 158.459 45.0257 157.87 45.0257 157.104V154.807H44.3484V154.719L45.7913 153.129V154.042Z" fill="#00469B"/>
<path d="M54.3017 158.4H52.6526C51.4747 158.4 50.7385 157.517 50.7385 156.133C50.7385 154.866 51.5631 153.983 52.6821 153.983C52.9471 153.983 53.1827 154.042 53.5066 154.16V151.804H54.2723V158.4H54.3017ZM53.5066 154.896C53.2416 154.778 53.0355 154.719 52.7704 154.719C52.0342 154.719 51.5042 155.308 51.5042 156.221C51.5042 157.045 51.7986 157.634 52.7115 157.634H53.5066V154.896Z" fill="#00469B"/>
<path d="M59.1018 157.987C58.6306 158.341 58.2184 158.488 57.5411 158.488C56.3337 158.488 55.627 157.369 55.627 156.162C55.627 154.837 56.3632 153.953 57.4527 153.953C58.4834 153.953 59.1607 154.748 59.1607 156.338H56.3926C56.5104 157.192 56.9521 157.634 57.7178 157.634C58.1889 157.634 58.6306 157.457 59.1018 157.104V157.987ZM58.3951 155.779C58.3656 155.131 58.0417 154.689 57.4822 154.689C56.8932 154.689 56.5398 155.072 56.422 155.779H58.3951Z" fill="#00469B"/>
<path d="M63.9312 151.804H63.1655V158.4H63.9312V151.804Z" fill="#00469B"/>
<path d="M68.5546 158.135C68.2012 158.4 68.054 158.488 67.8184 158.488C67.465 158.488 67.2883 158.341 67.2294 158.046C66.876 158.341 66.5227 158.488 66.1693 158.488C65.5803 158.488 65.1975 157.987 65.1975 157.428C65.1975 156.574 65.9043 156.309 66.5227 156.044L67.2 155.779V155.543C67.2 155.013 66.9644 154.778 66.4932 154.778C66.0515 154.778 65.6392 155.013 65.2564 155.484V154.542C65.5509 154.159 65.9926 153.953 66.5521 153.953C67.3472 153.953 67.9656 154.395 67.9656 155.396V157.634C67.9656 157.811 68.0245 157.87 68.1128 157.87C68.2012 157.87 68.3484 157.781 68.5251 157.634V158.135H68.5546ZM67.2294 156.25C66.5816 156.515 65.9926 156.751 65.9926 157.281C65.9926 157.634 66.2282 157.899 66.5521 157.899C66.7877 157.899 67.0233 157.752 67.2294 157.546V156.25Z" fill="#00469B"/>
<path d="M78.0368 158.4H77.1828V153.247H77.1534L75.3276 155.809H75.1804L73.3546 153.247H73.3252V158.4H72.4712V151.804H73.2663L75.2393 154.513L77.2417 151.804H78.0368V158.4Z" fill="#00469B"/>
<path d="M82.719 158.135C82.3656 158.4 82.2184 158.488 81.9534 158.488C81.6295 158.488 81.4233 158.341 81.3644 158.046C81.011 158.341 80.6577 158.488 80.3043 158.488C79.7153 158.488 79.3325 157.987 79.3325 157.428C79.3325 156.574 80.0393 156.309 80.6577 156.044L81.335 155.779V155.543C81.335 155.013 81.0994 154.778 80.6282 154.778C80.1865 154.778 79.7742 155.013 79.3914 155.484V154.542C79.6859 154.159 80.1276 153.953 80.6871 153.953C81.4822 153.953 82.1006 154.395 82.1006 155.396V157.634C82.1006 157.811 82.1595 157.87 82.2479 157.87C82.3362 157.87 82.4834 157.781 82.6601 157.634V158.135H82.719ZM81.3644 156.25C80.6871 156.515 80.1276 156.751 80.1276 157.281C80.1276 157.634 80.3632 157.899 80.6871 157.899C80.9227 157.899 81.1583 157.752 81.3644 157.546V156.25Z" fill="#00469B"/>
<path d="M84.6626 158.4H83.897V154.042H84.6626V158.4ZM85.4871 153.511H85.016L84.2503 152.657L83.5141 153.511H83.043L83.8381 152.039H84.6626L85.4871 153.511Z" fill="#00469B"/>
<path d="M87.1656 154.042H88.4024V154.807H87.1656V157.045C87.1656 157.546 87.4895 157.693 87.7251 157.693C87.9901 157.693 88.2846 157.576 88.6085 157.369V158.164C88.3435 158.341 87.9312 158.459 87.6662 158.459C86.8122 158.459 86.4 157.87 86.4 157.104V154.807H85.7227V154.719L87.1656 153.129V154.042Z" fill="#00469B"/>
<path d="M90.4637 154.041V155.043H90.4932C90.876 154.277 91.2588 153.953 91.6416 153.953C91.9656 153.953 92.26 154.13 92.584 154.454L92.1717 155.19C91.9361 154.925 91.6416 154.748 91.4355 154.748C90.9054 154.748 90.4932 155.337 90.4932 156.073V158.341H89.7275V153.983H90.4637V154.041Z" fill="#00469B"/>
<path d="M94.3803 158.4H93.6146V154.041H94.3803V158.4ZM93.968 153.246C93.703 153.246 93.4968 153.011 93.4968 152.746C93.4968 152.451 93.703 152.245 93.968 152.245C94.233 152.245 94.4392 152.481 94.4392 152.746C94.4392 153.011 94.233 153.246 93.968 153.246Z" fill="#00469B"/>
<path d="M98.238 155.19C97.7963 154.866 97.384 154.748 97.0896 154.748C96.7656 154.748 96.5889 154.925 96.5889 155.131C96.5889 155.337 96.854 155.573 97.5313 156.014C98.1791 156.486 98.4147 156.78 98.4147 157.222C98.4147 157.987 97.8552 158.488 97.119 158.488C96.6478 158.488 96.265 158.37 95.7644 158.105V157.163C96.265 157.546 96.7362 157.722 97.0601 157.722C97.384 157.693 97.6491 157.546 97.6491 157.222C97.6491 156.633 95.8233 156.309 95.8233 155.131C95.8233 154.395 96.3239 153.953 97.119 153.953C97.4724 153.953 97.8552 154.071 98.2675 154.307V155.19H98.238Z" fill="#00469B"/>
<path d="M103.067 157.987C102.596 158.341 102.184 158.488 101.507 158.488C100.299 158.488 99.5925 157.369 99.5925 156.162C99.5925 154.837 100.329 153.953 101.418 153.953C102.449 153.953 103.126 154.748 103.126 156.338H100.388C100.505 157.192 100.947 157.634 101.713 157.634C102.184 157.634 102.626 157.457 103.097 157.104V157.987H103.067ZM102.361 155.779C102.331 155.131 102.007 154.689 101.448 154.689C100.859 154.689 100.505 155.072 100.388 155.779H102.361Z" fill="#00469B"/>
<path d="M110.488 158.4H108.839C107.661 158.4 106.925 157.517 106.925 156.133C106.925 154.866 107.75 153.983 108.869 153.983C109.134 153.983 109.369 154.042 109.693 154.16V151.804H110.459V158.4H110.488ZM109.723 154.896C109.458 154.778 109.251 154.719 108.986 154.719C108.221 154.719 107.72 155.308 107.72 156.221C107.72 157.045 108.015 157.634 108.927 157.634H109.723V154.896Z" fill="#00469B"/>
<path d="M115.288 157.987C114.817 158.341 114.405 158.488 113.728 158.488C112.52 158.488 111.813 157.369 111.813 156.162C111.813 154.837 112.55 153.953 113.639 153.953C114.67 153.953 115.347 154.748 115.347 156.338H112.579C112.697 157.192 113.139 157.634 113.904 157.634C114.375 157.634 114.817 157.457 115.288 157.104V157.987ZM114.611 155.779C114.582 155.131 114.258 154.689 113.698 154.689C113.109 154.689 112.756 155.072 112.638 155.779H114.611Z" fill="#00469B"/>
<path d="M120.118 151.804H119.352V158.4H120.118V151.804Z" fill="#00469B"/>
<path d="M121.62 152.599V151.479H122.385V152.599L122.179 153.924H121.826L121.62 152.599Z" fill="#00469B"/>
<path d="M127.332 152.658H124.8V154.631H127.244V155.485H124.8V157.546H127.391V158.4H123.946V151.804H127.332V152.658Z" fill="#00469B"/>
<path d="M129.453 154.63C129.777 154.218 130.189 153.982 130.631 153.982C131.367 153.982 131.956 154.542 131.956 155.749V158.429H131.19V155.749C131.19 155.101 130.896 154.689 130.424 154.689C130.071 154.689 129.806 154.866 129.453 155.308V158.429H128.687V154.071H129.453V154.63Z" fill="#00469B"/>
<path d="M136.785 157.987C136.314 158.341 135.872 158.488 135.224 158.488C134.017 158.488 133.31 157.369 133.31 156.162C133.31 154.837 134.046 153.953 135.136 153.953C136.167 153.953 136.844 154.748 136.844 156.338H134.076C134.194 157.192 134.635 157.634 135.401 157.634C135.872 157.634 136.314 157.457 136.785 157.104V157.987ZM136.078 155.779C136.049 155.131 135.725 154.689 135.166 154.689C134.577 154.689 134.223 155.072 134.105 155.779H136.078Z" fill="#00469B"/>
<path d="M138.994 154.041V155.043H139.023C139.406 154.277 139.789 153.953 140.172 153.953C140.496 153.953 140.79 154.13 141.114 154.454L140.702 155.19C140.466 154.925 140.172 154.748 139.966 154.748C139.435 154.748 139.023 155.337 139.023 156.073V158.341H138.258V153.983H138.994V154.041Z" fill="#00469B"/>
<path d="M145.237 154.719H144.442C144.736 155.043 144.854 155.308 144.854 155.661C144.854 156.014 144.677 156.427 144.501 156.633C143.971 157.251 142.91 156.957 142.91 157.457C142.91 157.693 143.323 157.84 144.118 158.017C144.942 158.193 145.266 158.665 145.266 159.224C145.266 160.078 144.589 160.608 143.411 160.608C142.351 160.608 141.615 160.049 141.615 159.283C141.615 158.635 141.909 158.252 142.587 158.076C142.321 157.899 142.204 157.722 142.204 157.516C142.204 157.222 142.439 156.986 142.822 156.898V156.868C142.528 156.721 142.321 156.544 142.174 156.309C142.027 156.073 141.968 155.808 141.968 155.484C141.968 154.542 142.616 153.982 143.676 153.982H145.296V154.719H145.237ZM143.382 154.807C142.94 154.807 142.616 155.16 142.616 155.602C142.616 156.073 142.94 156.397 143.411 156.397C143.853 156.397 144.177 156.073 144.177 155.573C144.147 155.16 143.794 154.807 143.382 154.807ZM143.175 158.606C142.645 158.606 142.292 158.871 142.292 159.254C142.292 159.695 142.675 159.931 143.382 159.931C144.059 159.931 144.471 159.695 144.471 159.312C144.442 158.753 143.647 158.606 143.175 158.606Z" fill="#00469B"/>
<path d="M147.092 158.4H146.326V154.041H147.092V158.4ZM146.709 153.246C146.444 153.246 146.238 153.011 146.238 152.746C146.238 152.451 146.444 152.245 146.709 152.245C146.974 152.245 147.18 152.481 147.18 152.746C147.18 153.011 146.974 153.246 146.709 153.246Z" fill="#00469B"/>
<path d="M151.951 157.987C151.48 158.341 151.067 158.488 150.39 158.488C149.183 158.488 148.476 157.369 148.476 156.162C148.476 154.837 149.212 153.953 150.302 153.953C151.333 153.953 152.01 154.748 152.01 156.338H149.271C149.389 157.192 149.831 157.634 150.596 157.634C151.067 157.634 151.509 157.457 151.98 157.104V157.987H151.951ZM151.274 155.779C151.244 155.131 150.92 154.689 150.361 154.689C149.772 154.689 149.418 155.072 149.301 155.779H151.274Z" fill="#00469B"/>
</svg>
