<svg width="16" height="16" viewBox="0 0 16 16" fill="none" xmlns="http://www.w3.org/2000/svg">
<path fill-rule="evenodd" clip-rule="evenodd" d="M9.5801 1.07659C9.88577 1.22641 10.0522 1.56332 9.98544 1.89712L9.16485 6.00004H13.25C13.5436 6.00004 13.8103 6.1714 13.9322 6.43851C14.0542 6.70562 14.0091 7.01933 13.8168 7.24123L7.31677 14.7412C7.09382 14.9985 6.72557 15.0733 6.4199 14.9235C6.11423 14.7737 5.9478 14.4368 6.01456 14.103L6.83515 10H2.75C2.45636 10 2.18973 9.82868 2.06776 9.56157C1.94579 9.29446 1.99092 8.98074 2.18323 8.75884L8.68323 1.25884C8.90618 1.00159 9.27443 0.926759 9.5801 1.07659Z" fill="#0F172A"/>
</svg>
