<svg width="224" height="64" viewBox="0 0 224 64" fill="none" xmlns="http://www.w3.org/2000/svg">
<g clip-path="url(#clip0_140_594)">
<path d="M182.784 20.864C179.84 20.864 178.432 26.1119 179.328 33.9199C180.352 43.3918 188.8 43.3918 194.56 40.9598V45.5678C191.616 46.3358 188.672 46.7198 185.728 46.8478C177.664 47.4878 170.496 41.4718 169.856 33.4079C169.856 32.7679 169.856 32.1279 169.856 31.4879C169.856 25.4719 172.032 17.152 183.424 17.152C189.568 16.64 194.816 21.248 195.328 27.3919C195.328 27.7759 195.328 28.2879 195.328 28.6719H186.24C186.24 24.4479 185.344 20.864 182.784 20.864ZM223.103 31.7439H206.591V31.8719C207.103 43.5198 215.807 43.2638 221.951 40.8318V45.4398C219.135 46.2078 216.191 46.7198 213.247 46.7198C199.167 46.7198 197.119 36.3518 197.119 30.9759C197.119 24.8319 199.807 16.896 210.559 17.024C218.495 17.024 222.975 22.016 222.975 28.9279L223.103 31.7439ZM213.375 27.6479V27.1359C213.247 24.3199 212.607 20.992 210.175 20.992C207.871 20.992 206.975 23.8079 206.719 27.5199V27.7759L213.375 27.6479ZM134.016 45.9518H118.656C113.024 45.9518 108.928 43.6478 108.928 37.3758C108.8 33.2799 111.36 29.6959 115.328 28.6719C116.992 28.1599 118.784 27.7759 120.448 27.6479C122.112 27.5199 123.52 27.5199 124.416 27.5199H124.544V26.6239C124.544 20.096 118.016 20.736 114.304 21.888C113.664 22.016 113.024 22.2719 112.384 22.5279V18.176C115.328 17.408 118.4 17.152 121.472 17.152C129.664 17.152 134.144 20.992 134.144 27.5199L134.016 45.9518ZM124.544 41.9838V30.9759H124.416C121.344 30.8479 118.656 33.4079 118.656 36.4798C118.656 36.6078 118.656 36.8638 118.656 36.9918C118.656 41.4718 120.832 41.8558 122.88 41.9838H124.544Z" fill="#FFCD00"/>
<path d="M69.5044 18.0479V45.9516H60.0325V18.0479H69.5044Z" fill="#4B3C3C"/>
<path d="M108.672 21.1194C105.728 20.9914 103.04 23.1674 102.912 26.2393C102.912 26.6233 102.912 27.0073 102.912 27.2633V45.8232H93.4403V27.0073C93.4403 21.3754 98.6883 17.0234 106.752 17.0234H108.672V21.1194ZM93.3123 6.27148V10.2395C92.4163 10.2395 91.3923 10.2395 90.4963 10.3675C89.6003 10.3675 88.7043 10.6235 87.8083 10.8794C86.0164 11.6474 84.8644 13.5674 85.1204 15.6154V17.9194H91.9043V22.0154H85.1204V45.8232H75.6484V17.9194C75.6484 7.55147 82.6884 6.27148 91.3923 6.27148H93.3123ZM165.632 45.9512H156.032V29.1833C156.032 22.6554 153.472 22.2714 150.016 22.1434H149.376V45.9512H139.904V17.9194C140.672 18.0474 143.232 18.0474 151.808 18.0474C165.632 18.0474 165.76 24.4473 165.76 29.6953L165.632 45.9512Z" fill="#FFCD00"/>
<path d="M64.7685 12.2879C61.3125 12.2879 58.6245 9.59993 58.6245 6.14395C58.6245 2.68798 61.4405 0 64.7685 0C68.2244 0 70.9124 2.68798 70.9124 6.14395C70.9124 9.59993 68.2244 12.2879 64.7685 12.2879Z" fill="#4B3C3C"/>
<path d="M64.7685 63.9998C61.3125 63.9998 58.6245 61.3118 58.6245 57.8559C58.6245 54.3999 61.3125 51.7119 64.7685 51.7119C68.2244 51.7119 70.9124 54.3999 70.9124 57.8559C70.9124 61.3118 68.2244 63.9998 64.7685 63.9998Z" fill="#FFCD00"/>
<path d="M0.000976562 45.9512V6.27148H9.6009V18.0474H12.6729C19.3288 18.0474 22.6568 20.6074 24.3208 23.6794C25.4728 26.2393 26.1128 28.9273 25.9848 31.7433C25.9848 36.2233 24.5768 45.9512 13.5689 45.9512H0.000976562ZM16.1289 31.6153C16.1289 25.4713 14.7209 21.7594 10.3689 21.7594H9.6009V41.9832H10.4969C14.7209 42.1112 16.1289 38.0152 16.1289 31.6153ZM55.9365 32.2553C56.0645 35.0713 55.5525 37.8872 54.2726 40.3192C52.6086 43.3912 49.2806 45.9512 42.6246 45.9512H39.5527V57.7271H29.9527V18.0474H43.5206C54.5285 18.0474 55.8085 27.7753 55.9365 32.2553ZM39.5527 21.7594V41.9832H40.3207C44.6726 41.9832 46.0806 38.2712 46.0806 32.1273C46.0806 25.7273 44.6726 21.6314 40.4487 21.6314L39.5527 21.7594Z" fill="#4B3C3C"/>
</g>
<defs>
<clipPath id="clip0_140_594">
<rect width="223.998" height="64" fill="white" transform="translate(0.000976562)"/>
</clipPath>
</defs>
</svg>
