<svg width="16" height="16" viewBox="0 0 16 16" fill="none" xmlns="http://www.w3.org/2000/svg">
<path fill-rule="evenodd" clip-rule="evenodd" d="M8 0C3.58172 0 0 3.58172 0 8C0 12.4183 3.58172 16 8 16C12.4183 16 16 12.4183 16 8C16 3.58172 12.4183 0 8 0ZM5.32175 2.31178C3.1897 3.3174 1.71429 5.4864 1.71429 8C1.71429 11.4715 4.5285 14.2857 8 14.2857C11.4715 14.2857 14.2857 11.4715 14.2857 8C14.2857 7.33349 14.182 6.6912 13.9898 6.08842L12.9076 5.36699C12.7121 5.23667 12.4518 5.26244 12.2857 5.42857C12.1196 5.5947 11.8593 5.62048 11.6638 5.49015L11.13 5.13426C10.7691 4.89368 10.2857 5.15238 10.2857 5.58609C10.2857 5.6704 10.3053 5.75354 10.343 5.82894L10.6016 6.34604C10.7696 6.68216 10.8571 7.05278 10.8571 7.42857C10.8571 7.80436 10.7696 8.17499 10.6016 8.5111L10.4 8.91429C10.3248 9.0646 10.2857 9.23035 10.2857 9.39841V9.52381C10.2857 10.0184 10.1253 10.4996 9.82857 10.8952L8.91429 12.1143C8.69845 12.4021 8.35972 12.5714 8 12.5714C7.36882 12.5714 6.85714 12.0598 6.85714 11.4286V10.992C6.85714 10.5592 6.61257 10.1634 6.22539 9.96984L5.74277 9.72853C5.02489 9.36959 4.57143 8.63587 4.57143 7.83326C4.57143 6.66298 5.52013 5.71429 6.6904 5.71429H7.49892C7.77566 5.71429 8 5.48994 8 5.2132C8 4.88721 7.69364 4.64802 7.37739 4.72708L6.42281 4.96572C5.98325 5.07562 5.51825 4.94682 5.19786 4.62643C4.82046 4.24903 4.71446 3.67817 4.93123 3.19044L5.32175 2.31178Z" fill="#0F172A"/>
</svg>
