<svg width="16" height="16" viewBox="0 0 16 16" fill="none" xmlns="http://www.w3.org/2000/svg">
<path d="M13.3265 3.59941C13.3265 4.26213 12.8107 4.79941 12.1745 4.79941C11.5382 4.79941 11.0225 4.26213 11.0225 3.59941C11.0225 2.93667 11.5382 2.39941 12.1745 2.39941C12.8107 2.39941 13.3265 2.93667 13.3265 3.59941Z" fill="white"/>
<path fill-rule="evenodd" clip-rule="evenodd" d="M7.9506 12C10.0714 12 11.7906 10.2091 11.7906 8C11.7906 5.79088 10.0714 4 7.9506 4C5.82984 4 4.1106 5.79088 4.1106 8C4.1106 10.2091 5.82984 12 7.9506 12ZM7.9506 10.4C9.22309 10.4 10.2546 9.32552 10.2546 8C10.2546 6.67448 9.22309 5.6 7.9506 5.6C6.6781 5.6 5.6466 6.67448 5.6466 8C5.6466 9.32552 6.6781 10.4 7.9506 10.4Z" fill="white"/>
<path fill-rule="evenodd" clip-rule="evenodd" d="M0.270508 7.68C0.270508 4.99176 0.270508 3.6476 0.772749 2.62085C1.21453 1.71766 1.91947 0.98336 2.78652 0.523168C3.7722 1.90735e-07 5.0626 0 7.64331 0H8.25771C10.8384 0 12.1288 1.90735e-07 13.1145 0.523168C13.9815 0.98336 14.6865 1.71766 15.1282 2.62085C15.6305 3.6476 15.6305 4.99176 15.6305 7.68V8.32C15.6305 11.0082 15.6305 12.3524 15.1282 13.3791C14.6865 14.2823 13.9815 15.0166 13.1145 15.4768C12.1288 16 10.8384 16 8.25771 16H7.64331C5.0626 16 3.7722 16 2.78652 15.4768C1.91947 15.0166 1.21453 14.2823 0.772749 13.3791C0.270508 12.3524 0.270508 11.0082 0.270508 8.32V7.68ZM7.64331 1.6H8.25771C9.57345 1.6 10.4678 1.60125 11.1591 1.66008C11.8326 1.71739 12.177 1.82127 12.4172 1.94878C12.9952 2.25558 13.4651 2.74511 13.7597 3.3472C13.8821 3.59744 13.9818 3.95616 14.0368 4.65768C14.0933 5.37784 14.0945 6.30944 14.0945 7.68V8.32C14.0945 9.69056 14.0933 10.6222 14.0368 11.3423C13.9818 12.0438 13.8821 12.4026 13.7597 12.6528C13.4651 13.2549 12.9952 13.7444 12.4172 14.0512C12.177 14.1787 11.8326 14.2826 11.1591 14.3399C10.4678 14.3987 9.57345 14.4 8.25771 14.4H7.64331C6.32757 14.4 5.43323 14.3987 4.74188 14.3399C4.06842 14.2826 3.72405 14.1787 3.48382 14.0512C2.90582 13.7444 2.43586 13.2549 2.14133 12.6528C2.01893 12.4026 1.9192 12.0438 1.86418 11.3423C1.80771 10.6222 1.80651 9.69056 1.80651 8.32V7.68C1.80651 6.30944 1.80771 5.37784 1.86418 4.65768C1.9192 3.95616 2.01893 3.59744 2.14133 3.3472C2.43586 2.74511 2.90582 2.25558 3.48382 1.94878C3.72405 1.82127 4.06842 1.71739 4.74188 1.66008C5.43323 1.60125 6.32757 1.6 7.64331 1.6Z" fill="white"/>
</svg>
