<svg width="124" height="25" viewBox="0 0 124 25" fill="none" xmlns="http://www.w3.org/2000/svg">
<mask id="mask0_99_40" style="mask-type:alpha" maskUnits="userSpaceOnUse" x="0" y="0" width="124" height="25">
<g clip-path="url(#clip0_99_40)">
<mask id="mask1_99_40" style="mask-type:luminance" maskUnits="userSpaceOnUse" x="0" y="0" width="124" height="25">
<path d="M123.511 0.14856H0.710938V24.1486H123.511V0.14856Z" fill="white"/>
</mask>
<g mask="url(#mask1_99_40)">
<path d="M6.54236 18.4486H13.5184V23.4006H0.710938V0.896606H6.54236V18.4486Z" fill="#D90E1E"/>
<path d="M21.6671 5.84861V9.61261H28.243V14.5486H21.6671V18.4326H28.6112V23.4006H15.8357V0.896606H28.5992V5.84861H21.6671Z" fill="#D90E1E"/>
<path d="M44.8729 0.896606H50.6162L55.1709 12.9246L59.9737 0.896606H65.7891L69.1831 23.4006H63.3517L61.7148 10.4486H61.6547L56.2716 23.4006H53.9422L48.7912 10.4486H48.7391L46.8821 23.4006H41.0667L44.8729 0.896606Z" fill="#D90E1E"/>
<path d="M95.3343 11.7486C95.3343 19.0286 90.1313 24.1486 82.927 24.1486C75.7228 24.1486 70.5198 19.0126 70.5198 11.7486C70.5198 4.94856 76.4673 0.14856 82.927 0.14856C89.3868 0.14856 95.3343 4.92456 95.3343 11.7486ZM76.5913 11.7486C76.5913 15.6286 79.449 18.4646 82.927 18.4646C86.4051 18.4646 89.2748 15.6406 89.2748 11.7486C89.2748 8.64456 86.4211 5.80856 82.927 5.80856C79.433 5.80856 76.5913 8.65656 76.5913 11.7486Z" fill="#D90E1E"/>
<path d="M114.081 8.44851C113.481 7.66448 112.705 7.03182 111.816 6.60118C110.928 6.17053 109.95 5.95386 108.962 5.96851C105.392 5.96851 102.983 8.71651 102.983 12.2085C102.983 15.7605 105.42 18.3285 109.05 18.3285C110.012 18.3116 110.959 18.0885 111.827 17.6745C112.695 17.2604 113.464 16.665 114.081 15.9285V22.9485C112.144 23.5485 110.747 23.9965 108.934 23.9965C105.817 23.9797 102.818 22.7967 100.529 20.6805C98.06 18.4445 96.9274 15.5165 96.9274 12.1725C96.9138 9.10161 98.1 6.14667 100.233 3.93651C101.348 2.79829 102.675 1.8909 104.141 1.2663C105.607 0.641692 107.181 0.31214 108.774 0.296509C110.608 0.313369 112.42 0.699739 114.101 1.43251L114.081 8.44851Z" fill="#D90E1E"/>
<path d="M123.511 23.4006H117.688V0.896606H123.519L123.511 23.4006Z" fill="#D90E1E"/>
</g>
</g>
</mask>
<g mask="url(#mask0_99_40)">
<rect x="-30.3984" y="-46.5154" width="184.2" height="117.888" fill="#C7C7C7"/>
</g>
<defs>
<clipPath id="clip0_99_40">
<rect width="122.8" height="24" fill="white" transform="translate(0.710938 0.14856)"/>
</clipPath>
</defs>
</svg>
