<svg width="18" height="16" viewBox="0 0 18 16" fill="none" xmlns="http://www.w3.org/2000/svg">
<path d="M4.26283 1.93392C4.26283 3.002 3.33698 3.86784 2.19502 3.86784C1.05298 3.86784 0.127197 3.002 0.127197 1.93392C0.127197 0.865844 1.05298 0 2.19502 0C3.33698 0 4.26283 0.865844 4.26283 1.93392Z" fill="white"/>
<path d="M0.410156 5.28906H3.94484V16H0.410156V5.28906Z" fill="white"/>
<path d="M9.63554 5.28908H6.10083V16H9.63554C9.63554 16 9.63554 12.6281 9.63554 10.5198C9.63554 9.25429 10.0677 7.9833 11.7917 7.9833C13.7401 7.9833 13.7284 9.63933 13.7193 10.9223C13.7074 12.5993 13.7357 14.3107 13.7357 16H17.2705V10.347C17.2405 6.73745 16.2999 5.07422 13.2056 5.07422C11.3679 5.07422 10.2288 5.90852 9.63554 6.66328V5.28908Z" fill="white"/>
</svg>
