<svg width="220" height="66" viewBox="0 0 220 66" fill="none" xmlns="http://www.w3.org/2000/svg">
<g clip-path="url(#clip0_154_90)">
<path d="M220 0H0V65.6999H220V0Z" fill="white"/>
<path d="M62.0143 48H54.3054L49.2103 30.7212V48H40.571V18.4932H53.3307L58.1598 36.1264L62.8561 18.4932H75.793V48H67.1537V30.7212L62.0143 48Z" fill="black"/>
<path d="M170.67 18.4932H179.265V48H170.36L161.144 31.6073V48H152.505V18.4932H162.961L170.67 33.5567V18.4932Z" fill="black"/>
<path d="M129.154 48.3411C137.331 48.3411 143.959 41.7668 143.959 33.657C143.959 25.5472 137.331 18.9729 129.154 18.9729C120.977 18.9729 114.349 25.5472 114.349 33.657C114.349 41.7668 120.977 48.3411 129.154 48.3411Z" fill="black"/>
<path d="M94.9882 57.6999C108.376 57.6999 119.23 46.9354 119.23 33.6567C119.23 20.378 108.376 9.61353 94.9882 9.61353C81.6 9.61353 70.7467 20.378 70.7467 33.6567C70.7467 46.9354 81.6 57.6999 94.9882 57.6999Z" fill="white"/>
<path d="M94.7048 48.4043C102.894 48.4043 109.532 41.8204 109.532 33.6986C109.532 25.5769 102.894 18.9929 94.7048 18.9929C86.5161 18.9929 79.8778 25.5769 79.8778 33.6986C79.8778 41.8204 86.5161 48.4043 94.7048 48.4043Z" fill="black"/>
</g>
<defs>
<clipPath id="clip0_154_90">
<rect width="220" height="66" fill="white"/>
</clipPath>
</defs>
</svg>
