<svg width="186" height="80" viewBox="0 0 186 80" fill="none" xmlns="http://www.w3.org/2000/svg">
<path d="M30.6311 53.0523H20.5748L13.9284 30.5123V53.0523H2.65845V14.561H19.3033L25.603 37.5633L31.7292 14.561H48.6053V53.0523H37.3353V30.5123L30.6311 53.0523Z" fill="black"/>
<path d="M171.773 14.561H182.985V53.0523H171.368L159.347 31.6682V53.0523H148.077V14.561H161.716L171.773 34.2112V14.561Z" fill="black"/>
<path d="M117.729 52.8932C128.352 52.8932 136.963 44.2818 136.963 33.6591C136.963 23.0364 128.352 14.425 117.729 14.425C107.106 14.425 98.4949 23.0364 98.4949 33.6591C98.4949 44.2818 107.106 52.8932 117.729 52.8932Z" fill="black"/>
<path d="M73.3433 65.1523C90.7365 65.1523 104.837 51.0523 104.837 33.6591C104.837 16.2659 90.7365 2.1659 73.3433 2.1659C55.9501 2.1659 41.8501 16.2659 41.8501 33.6591C41.8501 51.0523 55.9501 65.1523 73.3433 65.1523Z" fill="white"/>
<path d="M72.9753 52.9763C83.6136 52.9763 92.2377 44.3522 92.2377 33.7139C92.2377 23.0756 83.6136 14.4515 72.9753 14.4515C62.337 14.4515 53.7129 23.0756 53.7129 33.7139C53.7129 44.3522 62.337 52.9763 72.9753 52.9763Z" fill="black"/>
<path d="M182.618 63.0386H2.53638V79.9477H182.618V63.0386Z" fill="#F4AA49"/>
<path d="M56.1865 72.1014C56.1865 71.5928 56.2592 71.1337 56.4045 70.7242C56.5498 70.3081 56.7546 69.9514 57.0188 69.6542C57.283 69.357 57.6 69.1291 57.9699 68.9706C58.3398 68.8054 58.7493 68.7229 59.1985 68.7229C59.7467 68.7229 60.2322 68.8186 60.6549 69.0102C61.0842 69.2017 61.4277 69.4858 61.6853 69.8623C61.9495 70.2321 62.1014 70.6879 62.1411 71.2295H60.6648C60.6516 70.8662 60.5129 70.5789 60.2487 70.3675C59.9845 70.1496 59.641 70.0406 59.2183 70.0406C58.9805 70.0406 58.7625 70.0868 58.5644 70.1793C58.3728 70.2718 58.211 70.4072 58.0789 70.5855C57.9468 70.7572 57.8444 70.9719 57.7718 71.2295C57.7057 71.4805 57.6727 71.7711 57.6727 72.1014C57.6727 72.7619 57.8081 73.2738 58.0789 73.6371C58.3497 74.0004 58.7295 74.182 59.2183 74.182C59.5023 74.182 59.7467 74.1325 59.9515 74.0334C60.1628 73.9343 60.3313 73.7956 60.4568 73.6173C60.5823 73.4323 60.6516 73.221 60.6648 72.9832H62.1411C62.1146 73.5314 61.9693 73.9938 61.7051 74.3702C61.4475 74.7467 61.1008 75.0308 60.6648 75.2223C60.2355 75.4072 59.7467 75.4997 59.1985 75.4997C58.5974 75.4997 58.0723 75.3577 57.6232 75.0737C57.174 74.7897 56.8206 74.3934 56.563 73.8848C56.312 73.3762 56.1865 72.7817 56.1865 72.1014ZM64.9429 72.2005C64.9429 71.6787 65.0156 71.2064 65.1609 70.7837C65.3128 70.3543 65.5242 69.9878 65.795 69.6839C66.0724 69.3735 66.4027 69.1357 66.7858 68.9706C67.1755 68.8054 67.6015 68.7229 68.0639 68.7229C68.6913 68.7229 69.2363 68.8682 69.6986 69.1588C70.1676 69.4494 70.5309 69.8556 70.7885 70.3775C71.0527 70.8927 71.1848 71.5003 71.1848 72.2005C71.1848 72.861 71.0527 73.4389 70.7885 73.9343C70.5309 74.4297 70.1676 74.8161 69.6986 75.0935C69.2363 75.3643 68.6913 75.4997 68.0639 75.4997C67.443 75.4997 66.8981 75.3643 66.4291 75.0935C65.9601 74.8161 65.5936 74.4297 65.3293 73.9343C65.0717 73.4389 64.9429 72.861 64.9429 72.2005ZM69.6986 72.2005C69.6986 71.5201 69.5533 70.9917 69.2627 70.6152C68.9787 70.2321 68.5791 70.0406 68.0639 70.0406C67.7204 70.0406 67.4265 70.1265 67.1821 70.2982C66.9377 70.4699 66.7494 70.7176 66.6173 71.0413C66.4918 71.3583 66.4291 71.7447 66.4291 72.2005C66.4291 72.8213 66.5711 73.3068 66.8551 73.6569C67.1391 74.007 67.5421 74.182 68.0639 74.182C68.4073 74.182 68.7013 74.1027 68.9456 73.9442C69.19 73.7857 69.375 73.5611 69.5005 73.2705C69.6326 72.9733 69.6986 72.6166 69.6986 72.2005ZM78.4055 75.4205H77.0878L75.5422 70.8827V75.4205H74.0758V68.8219H76.2258L77.7417 73.4092L79.2278 68.8219H81.4174V75.4205H79.961V70.8827L78.4055 75.4205ZM88.7372 75.4205H87.4195L85.8739 70.8827V75.4205H84.4076V68.8219H86.5575L88.0734 73.4092L89.5595 68.8219H91.7491V75.4205H90.2927V70.8827L88.7372 75.4205ZM94.6897 68.8219H96.1462V72.8445C96.1462 73.2474 96.2585 73.5611 96.483 73.7857C96.7142 74.0037 97.0346 74.1126 97.4441 74.1126C97.8272 74.1126 98.1211 74.0037 98.3259 73.7857C98.5372 73.5611 98.6429 73.2474 98.6429 72.8445V68.8219H100.089V72.8445C100.089 73.3729 99.9771 73.8385 99.7526 74.2414C99.5346 74.6377 99.2275 74.9482 98.8311 75.1728C98.4348 75.3907 97.9725 75.4997 97.4441 75.4997C96.8958 75.4997 96.4137 75.3907 95.9976 75.1728C95.588 74.9482 95.2677 74.6377 95.0365 74.2414C94.8053 73.8385 94.6897 73.3729 94.6897 72.8445V68.8219ZM107.27 68.8219H108.727V75.4205H107.201L104.506 70.9818V75.4205H103.04V68.8219H104.843L107.27 73.003V68.8219ZM111.717 68.8219H113.173V75.4205H111.717V68.8219ZM121.058 68.8219V70.1991H119.235V75.4205H117.788V70.1991H115.955V68.8219H121.058ZM125.812 73.1912L123.592 68.8219H125.197L126.565 71.6654L127.902 68.8219H129.517L127.268 73.2011V75.4205H125.812V73.1912Z" fill="black"/>
</svg>
