<svg width="297" height="128" viewBox="0 0 297 128" fill="none" xmlns="http://www.w3.org/2000/svg">
<path d="M48.8158 83.5364H32.7894L22.1973 47.6153V83.5364H4.23682V22.1943H30.7631L40.8026 58.8522L50.5658 22.1943H77.4605V83.5364H59.5V47.6153L48.8158 83.5364Z" fill="white"/>
<path d="M273.748 22.1943H291.616V83.5364H273.102L253.945 49.4574V83.5364H235.985V22.1943H257.721L273.748 53.51V22.1943Z" fill="white"/>
<path d="M187.621 84.2105C204.55 84.2105 218.274 70.4869 218.274 53.5579C218.274 36.6289 204.55 22.9053 187.621 22.9053C170.692 22.9053 156.969 36.6289 156.969 53.5579C156.969 70.4869 170.692 84.2105 187.621 84.2105Z" fill="white"/>
<path d="M116.884 103.747C144.603 103.747 167.074 81.2765 167.074 53.5576C167.074 25.8388 144.603 3.36816 116.884 3.36816C89.1654 3.36816 66.6948 25.8388 66.6948 53.5576C66.6948 81.2765 89.1654 103.747 116.884 103.747Z" fill="#231D16"/>
<path d="M116.298 84.3428C133.252 84.3428 146.996 70.5989 146.996 53.645C146.996 36.6911 133.252 22.9473 116.298 22.9473C99.344 22.9473 85.6001 36.6911 85.6001 53.645C85.6001 70.5989 99.344 84.3428 116.298 84.3428Z" fill="white"/>
<path d="M291.031 100.379H4.04199V127.326H291.031V100.379Z" fill="#F4AA49"/>
<path d="M89.542 115.3C89.542 114.49 89.6579 113.758 89.8893 113.105C90.121 112.442 90.4473 111.874 90.8683 111.4C91.2894 110.927 91.7947 110.563 92.3841 110.311C92.9736 110.048 93.6263 109.916 94.342 109.916C95.2158 109.916 95.9894 110.069 96.6631 110.374C97.3473 110.679 97.8946 111.132 98.3051 111.732C98.7262 112.321 98.9683 113.048 99.0315 113.911H96.6789C96.6578 113.332 96.4367 112.874 96.0157 112.537C95.5946 112.19 95.0473 112.016 94.3737 112.016C93.9946 112.016 93.6473 112.09 93.3315 112.237C93.0263 112.385 92.7684 112.6 92.5578 112.884C92.3473 113.158 92.1842 113.5 92.0683 113.911C91.9631 114.311 91.9104 114.774 91.9104 115.3C91.9104 116.353 92.1262 117.169 92.5578 117.748C92.9894 118.327 93.5946 118.616 94.3737 118.616C94.8262 118.616 95.2158 118.537 95.5421 118.379C95.8789 118.221 96.1473 118 96.3473 117.716C96.5472 117.421 96.6578 117.084 96.6789 116.706H99.0315C98.9895 117.579 98.7579 118.316 98.3368 118.916C97.9263 119.516 97.3736 119.969 96.6789 120.274C95.9947 120.569 95.2158 120.716 94.342 120.716C93.3841 120.716 92.5473 120.49 91.8314 120.037C91.1157 119.584 90.5525 118.953 90.142 118.142C89.7421 117.332 89.542 116.384 89.542 115.3ZM103.497 115.458C103.497 114.627 103.613 113.874 103.844 113.2C104.086 112.516 104.423 111.932 104.855 111.448C105.297 110.953 105.823 110.574 106.434 110.311C107.055 110.048 107.734 109.916 108.47 109.916C109.471 109.916 110.339 110.148 111.076 110.611C111.823 111.074 112.402 111.721 112.813 112.553C113.234 113.374 113.444 114.342 113.444 115.458C113.444 116.511 113.234 117.432 112.813 118.221C112.402 119.011 111.823 119.627 111.076 120.069C110.339 120.5 109.471 120.716 108.47 120.716C107.481 120.716 106.613 120.5 105.865 120.069C105.118 119.627 104.534 119.011 104.113 118.221C103.702 117.432 103.497 116.511 103.497 115.458ZM111.076 115.458C111.076 114.374 110.844 113.532 110.381 112.932C109.928 112.321 109.291 112.016 108.47 112.016C107.923 112.016 107.455 112.153 107.065 112.427C106.676 112.7 106.376 113.095 106.165 113.611C105.965 114.116 105.865 114.732 105.865 115.458C105.865 116.448 106.091 117.221 106.544 117.779C106.997 118.337 107.639 118.616 108.47 118.616C109.018 118.616 109.486 118.49 109.876 118.237C110.265 117.984 110.56 117.627 110.76 117.163C110.97 116.69 111.076 116.121 111.076 115.458ZM124.952 120.59H122.851L120.388 113.358V120.59H118.051V110.074H121.478L123.894 117.384L126.262 110.074H129.752V120.59H127.43V113.358L124.952 120.59ZM141.417 120.59H139.316L136.853 113.358V120.59H134.517V110.074H137.944L140.359 117.384L142.727 110.074H146.216V120.59H143.896V113.358L141.417 120.59ZM150.902 110.074H153.224V116.484C153.224 117.127 153.403 117.627 153.762 117.984C154.129 118.332 154.64 118.505 155.292 118.505C155.903 118.505 156.371 118.332 156.698 117.984C157.034 117.627 157.203 117.127 157.203 116.484V110.074H159.508V116.484C159.508 117.327 159.329 118.069 158.972 118.711C158.624 119.342 158.135 119.837 157.503 120.195C156.871 120.542 156.134 120.716 155.292 120.716C154.419 120.716 153.65 120.542 152.987 120.195C152.335 119.837 151.824 119.342 151.456 118.711C151.087 118.069 150.902 117.327 150.902 116.484V110.074ZM170.953 110.074H173.274V120.59H170.842L166.547 113.516V120.59H164.21V110.074H167.084L170.953 116.737V110.074ZM178.038 110.074H180.36V120.59H178.038V110.074ZM192.926 110.074V112.269H190.019V120.59H187.715V112.269H184.794V110.074H192.926ZM200.5 117.037L196.964 110.074H199.522L201.701 114.606L203.833 110.074H206.406L202.822 117.053V120.59H200.5V117.037Z" fill="black"/>
</svg>
