<svg width="220" height="64" viewBox="0 0 220 64" fill="none" xmlns="http://www.w3.org/2000/svg">
<path fill-rule="evenodd" clip-rule="evenodd" d="M34.9727 41.1163C35.5494 41.1163 35.4781 40.7865 35.4781 40.1736V37.199C35.4781 36.5837 35.4172 36.3884 35.7681 36.3884C36.9928 36.3884 37.3273 36.2773 37.3273 35.1836V24.1276C37.3273 21.1168 35.1997 21.6139 34.5984 20.5144C33.7492 19.0254 36.1916 19.0254 35.3049 15.8017C35.0792 15.073 34.506 14.6191 33.4042 14.6191C32.3012 14.6191 31.7268 15.073 31.5011 15.8017C30.6144 19.0254 33.0603 19.0254 32.2064 20.5144C31.6052 21.6139 29.4822 21.1168 29.4822 24.1276V35.1836C29.4822 36.2773 29.812 36.3884 31.0402 36.3884C31.3864 36.3884 31.3291 36.5837 31.3291 37.199V40.1736C31.3291 40.7865 31.2566 41.1163 31.8356 41.1163H34.9727Z" fill="#009EDB"/>
<path fill-rule="evenodd" clip-rule="evenodd" d="M25.2925 17.1256C24.207 18.2836 22.4864 20.9833 23.6081 23.2291C25.889 24.1075 25.7159 16.0027 28.5548 16.1419C29.9608 17.4426 28.136 21.2652 27.5734 22.9495C26.8692 25.0211 26.3113 29.37 24.9767 31.4743C23.8573 33.23 24.6983 38.7381 24.3439 40.6319C23.3999 41.5782 20.8359 40.9114 19.7493 40.7348C19.7493 38.5627 19.4674 36.8444 19.1177 33.3704C19.0837 32.6697 18.3445 21.9319 18.941 20.6347C20.1692 17.9315 26.8692 12.7755 27.7851 11.7929C28.591 10.9145 31.4299 8.00195 32.5201 8.00195C33.2897 8.52949 32.837 9.75884 32.6604 10.2466C31.5749 12.9498 26.8692 15.6179 25.2925 17.1256Z" fill="#009EDB"/>
<path fill-rule="evenodd" clip-rule="evenodd" d="M41.6412 17.1256C42.6916 18.2836 44.4123 20.9833 43.3244 23.2291C41.0096 24.1075 41.1851 16.0027 38.3439 16.1419C36.9753 17.4426 38.7977 21.2652 39.3603 22.9495C40.061 25.0211 40.6224 29.37 41.9559 31.4743C43.0461 33.23 42.2355 38.7381 42.5524 40.6319C43.5327 41.5782 46.0615 40.9114 47.1821 40.7348C47.1821 38.5627 47.4301 36.8444 47.7787 33.3704C47.85 32.6697 48.5869 21.9319 47.9904 20.6347C46.7645 17.9315 40.061 12.7755 39.1521 11.7929C38.3076 10.9145 35.5027 8.00195 34.4137 8.00195C33.6054 8.52949 34.099 9.75884 34.2733 10.2466C35.3623 12.9498 40.061 15.6179 41.6412 17.1256Z" fill="#009EDB"/>
<path fill-rule="evenodd" clip-rule="evenodd" d="M15.5478 13.4887C14.9477 14.049 13.6131 14.435 12.6972 15.6655C12.3475 14.9988 13.2598 13.3834 14.3488 12.4325C15.1594 11.7622 16.7409 10.6756 17.197 10.5703C17.5503 11.3797 16.2847 12.6091 15.5478 13.4887Z" fill="#009EDB"/>
<path fill-rule="evenodd" clip-rule="evenodd" d="M13.6843 17.8802C12.6643 18.8323 11.5765 19.2183 10.167 20.9401C9.57045 18.8662 9.71081 17.038 9.99037 15.8074C10.4852 14.1909 11.2899 12.3978 12.6643 11.834C12.3836 12.7487 11.9227 14.0143 11.8174 15.7373C11.2221 18.093 10.8712 18.1644 11.0127 18.479C11.1507 18.479 11.9227 17.2497 12.8748 16.2999C13.9989 15.1746 15.4037 14.9267 16.3173 14.2611C16.1781 14.7185 15.3698 16.1595 13.6843 17.8802Z" fill="#009EDB"/>
<path fill-rule="evenodd" clip-rule="evenodd" d="M8.72492 27.6206C7.35637 25.1584 7.21367 23.3652 7.1084 21.2914C7.18092 19.8491 7.88157 16.5108 8.93664 16.0195C8.62082 19.0409 9.43025 19.3239 9.11092 21.8189C9.11092 21.9593 8.76001 24.5607 8.76001 24.701C9.18344 24.632 8.7951 22.3102 13.6131 18.973C12.558 20.7989 13.0481 21.3627 11.1509 23.7887C8.93664 25.9678 8.62082 28.113 8.72492 27.6206Z" fill="#009EDB"/>
<path fill-rule="evenodd" clip-rule="evenodd" d="M10.6607 29.9382C9.63835 31.4156 9.81497 32.1548 9.57051 32.8566C7.14221 31.4507 4.40161 25.8618 5.41924 23.085C6.05205 25.1928 6.93283 25.6513 7.56447 27.407C8.6558 30.0458 8.48035 30.8541 9.18333 31.4506C9.03946 30.0798 9.49915 28.4621 9.95534 27.2666C10.6256 26.2502 11.1508 24.9109 11.6444 24.4535C12.1696 26.3894 11.7847 27.9731 10.6607 29.9382Z" fill="#009EDB"/>
<path fill-rule="evenodd" clip-rule="evenodd" d="M12.8397 34.7199C12.8397 36.8651 12.4502 37.8126 12.2771 39.3952C8.09194 38.0254 5.91162 33.2437 5.91162 30.8891C7.18074 33.7724 9.0394 33.7362 11.4689 37.8126C11.6782 36.2674 11.0454 37.4277 10.9741 34.5093C11.0454 31.4506 11.6782 31.3453 11.7847 29.4492C12.5578 30.2914 12.8397 33.6671 12.8397 34.7199Z" fill="#009EDB"/>
<path fill-rule="evenodd" clip-rule="evenodd" d="M16.3173 40.8023C16.6366 42.3849 16.777 44.2471 17.0214 45.618C14.6317 44.7407 14.0317 45.4062 11.1858 43.6154C9.88744 42.9124 7.56441 39.959 7.70829 37.8488C10.5179 40.9789 11.0127 40.6257 12.3836 41.786C13.6457 42.8048 14.6645 44.3196 15.5815 44.1079C15.6482 43.2645 13.5077 41.4351 13.7872 36.1621C14.3487 36.7587 15.895 39.1495 16.3173 40.8023Z" fill="#009EDB"/>
<path fill-rule="evenodd" clip-rule="evenodd" d="M21.0641 44.7409C21.8033 45.7948 21.629 46.251 23.5239 48.4313C23.0666 48.643 20.3634 49.3436 18.5679 49.415C17.376 49.415 13.1569 48.2921 11.7498 45.4064C14.1722 46.7083 14.2108 46.3925 17.445 47.0967C19.7634 47.623 21.4161 48.3599 22.049 48.2921C21.9098 47.9751 20.1154 47.237 18.8861 45.6883C17.6532 44.0367 17.9363 42.1746 16.845 40.8025C17.5842 40.5908 20.464 43.9665 21.0641 44.7409Z" fill="#009EDB"/>
<path fill-rule="evenodd" clip-rule="evenodd" d="M51.1896 13.4887C51.7534 14.049 53.1255 14.435 54.0028 15.6655C54.3888 14.9988 53.4413 13.3834 52.3535 12.4325C51.5803 11.7622 49.9989 10.6756 49.5041 10.5703C49.1532 11.3797 50.4165 12.6091 51.1896 13.4887Z" fill="#009EDB"/>
<path fill-rule="evenodd" clip-rule="evenodd" d="M53.054 17.8802C54.0377 18.8323 55.1278 19.2183 56.5338 20.9401C57.1339 18.8662 56.9912 17.038 56.7104 15.8074C56.2543 14.1909 55.4109 12.3978 54.0377 11.834C54.3558 12.7487 54.7769 14.0143 54.8822 15.7373C55.4788 18.093 55.832 18.1644 55.6916 18.479C55.5513 18.479 54.7769 17.2497 53.8295 16.2999C52.737 15.1746 51.331 14.9267 50.3835 14.2611C50.5227 14.7185 51.3673 16.1595 53.054 17.8802Z" fill="#009EDB"/>
<path fill-rule="evenodd" clip-rule="evenodd" d="M57.9774 27.6206C59.381 25.1584 59.4863 23.3652 59.5928 21.2914C59.5214 19.8491 58.8196 16.5108 57.8008 16.0195C58.0815 19.0409 57.2732 19.3239 57.623 21.8189C57.623 21.9593 57.9411 24.5607 57.9411 24.701C57.5551 24.632 57.906 22.3102 53.1255 18.973C54.1443 20.7989 53.6495 21.3627 55.5514 23.7887C57.8008 25.9678 58.0815 28.113 57.9774 27.6206Z" fill="#009EDB"/>
<path fill-rule="evenodd" clip-rule="evenodd" d="M56.0788 29.9382C57.0625 31.4156 56.8859 32.1548 57.1339 32.8566C59.5575 31.4507 62.3344 25.8618 61.2805 23.085C60.6828 25.1928 59.7692 25.6513 59.1727 27.407C58.0463 30.0458 58.2217 30.8541 57.555 31.4506C57.6942 30.0798 57.2017 28.4621 56.7456 27.2666C56.1116 26.2502 55.5513 24.9109 55.0565 24.4535C54.5652 26.3894 54.9161 27.9731 56.0788 29.9382Z" fill="#009EDB"/>
<path fill-rule="evenodd" clip-rule="evenodd" d="M53.8611 34.7199C53.8611 36.8651 54.2822 37.8126 54.46 39.3952C58.6089 38.0254 60.8243 33.2437 60.8243 30.8891C59.5213 33.7724 57.6942 33.7362 55.2366 37.8126C55.0226 36.2674 55.6554 37.4277 55.7268 34.5093C55.6554 31.4506 55.0226 31.3453 54.9162 29.4492C54.1442 30.2914 53.8611 33.6671 53.8611 34.7199Z" fill="#009EDB"/>
<path fill-rule="evenodd" clip-rule="evenodd" d="M50.3837 40.8023C50.0656 42.3849 49.9626 44.2471 49.7158 45.618C52.0704 44.7407 52.6658 45.4062 55.5152 43.6154C56.8159 42.9124 59.1728 39.959 59.0301 37.8488C56.2182 40.9789 55.6918 40.6257 54.356 41.786C53.0904 42.8048 52.0365 44.3196 51.1195 44.1079C51.0516 43.2645 53.1968 41.4351 52.9489 36.1621C52.3535 36.7587 50.8036 39.1495 50.3837 40.8023Z" fill="#009EDB"/>
<path fill-rule="evenodd" clip-rule="evenodd" d="M45.6358 44.7409C44.9328 45.7948 45.1083 46.251 43.1736 48.4313C43.6672 48.643 46.34 49.3436 48.1694 49.415C49.3274 49.415 53.5465 48.2921 54.9501 45.4064C52.5253 46.7083 52.4914 46.3925 49.2572 47.0967C46.9365 47.623 45.32 48.3599 44.6521 48.2921C44.7924 47.9751 46.6219 47.237 47.8161 45.6883C49.0455 44.0367 48.7659 42.1746 49.8912 40.8025C49.1168 40.5908 46.2359 43.9665 45.6358 44.7409Z" fill="#009EDB"/>
<path fill-rule="evenodd" clip-rule="evenodd" d="M27.3582 54.6545L26.6528 54.3036C26.6528 54.3036 31.1211 48.854 38.7838 49.2763C46.4465 49.6974 45.9189 51.4905 50.0328 51.2098C50.489 51.1747 49.6795 51.7712 49.6795 51.7712C49.6795 51.7712 45.6745 53.3176 40.7185 51.6297C35.794 49.943 32.5937 48.923 27.3582 54.6545Z" fill="#009EDB"/>
<path fill-rule="evenodd" clip-rule="evenodd" d="M39.4855 54.6545L40.1908 54.3036C40.1908 54.3036 35.7565 48.854 28.0938 49.2763C20.3972 49.6974 20.9224 51.4905 16.8109 51.2098C16.3558 51.1747 17.1618 51.7712 17.1618 51.7712C17.1618 51.7712 21.1703 53.3176 26.1287 51.6297C31.0835 49.943 34.2827 48.923 39.4855 54.6545Z" fill="#009EDB"/>
<path fill-rule="evenodd" clip-rule="evenodd" d="M74.524 46.9227H71.8489V45.2734H79.1607V46.9227H76.4856V54.1971H74.524V46.9227Z" fill="#009EDB"/>
<path fill-rule="evenodd" clip-rule="evenodd" d="M79.7712 45.2734H81.548V48.6352H81.5843C82.0346 47.9099 82.809 47.5602 83.471 47.5602C85.3589 47.5602 85.8326 48.6223 85.8326 50.2236V54.1971H84.0582V50.5464C84.0582 49.4855 83.747 48.9592 82.9224 48.9592C81.9597 48.9592 81.548 49.4961 81.548 50.8108V54.1971H79.7712V45.2734Z" fill="#009EDB"/>
<path fill-rule="evenodd" clip-rule="evenodd" d="M88.3696 51.3962C88.4199 52.5203 88.9697 53.0338 89.9569 53.0338C90.6704 53.0338 91.2435 52.5963 91.3558 52.1963H92.9186C92.4191 53.7204 91.3558 54.3719 89.8949 54.3719C87.8584 54.3719 86.594 52.9718 86.594 50.9716C86.594 49.0346 87.9333 47.5596 89.8949 47.5596C92.0951 47.5596 93.1572 49.4089 93.032 51.3962H88.3696ZM91.2576 50.2709C91.0938 49.3726 90.7067 48.8977 89.8446 48.8977C88.7205 48.8977 88.3953 49.7726 88.3696 50.2709H91.2576Z" fill="#009EDB"/>
<path fill-rule="evenodd" clip-rule="evenodd" d="M104.417 50.8225C104.417 53.2344 102.991 54.41 100.605 54.41C98.2055 54.41 96.8042 53.2461 96.8042 50.8225V45.2734H98.767V50.8225C98.767 51.7968 99.0173 52.7595 100.605 52.7595C102.004 52.7595 102.454 52.1466 102.454 50.8225V45.2734H104.417V50.8225Z" fill="#009EDB"/>
<path fill-rule="evenodd" clip-rule="evenodd" d="M105.728 45.2734H107.678L111.401 51.26H111.427V45.2734H113.264V54.1971H111.303L107.589 48.2234H107.564V54.1971H105.728V45.2734Z" fill="#009EDB"/>
<path fill-rule="evenodd" clip-rule="evenodd" d="M119.225 46.7964H121.374C122.248 46.7964 122.724 47.173 122.724 48.0351C122.724 48.9369 122.248 49.3101 121.374 49.3101H119.225V46.7964ZM117.261 54.1971H119.225V50.7102H121.187C122.174 50.7102 122.535 51.1219 122.673 52.06C122.774 52.7724 122.748 53.6344 122.986 54.1971H124.948C124.599 53.6964 124.612 52.6472 124.573 52.0846C124.511 51.1851 124.236 50.2482 123.272 49.9979V49.9721C124.261 49.5721 124.685 48.7849 124.685 47.7368C124.685 46.387 123.675 45.2734 122.073 45.2734H117.261V54.1971Z" fill="#009EDB"/>
<path fill-rule="evenodd" clip-rule="evenodd" d="M127.336 50.2709C127.36 49.7726 127.684 48.8977 128.809 48.8977C129.672 48.8977 130.06 49.3726 130.222 50.2709H127.336ZM131.996 51.3962C132.122 49.4089 131.059 47.5596 128.86 47.5596C126.897 47.5596 125.56 49.0346 125.56 50.9716C125.56 52.9718 126.822 54.3719 128.86 54.3719C130.323 54.3719 131.384 53.7204 131.885 52.1963H130.323C130.208 52.5963 129.634 53.0338 128.922 53.0338C127.936 53.0338 127.385 52.5203 127.336 51.3962H131.996Z" fill="#009EDB"/>
<path fill-rule="evenodd" clip-rule="evenodd" d="M133.209 48.9229H132.146V47.7368H133.209V47.235C133.209 46.0992 133.921 45.2734 135.37 45.2734C135.683 45.2734 136.008 45.3109 136.308 45.3249V46.6478C136.097 46.6244 135.884 46.6116 135.657 46.6116C135.184 46.6116 134.983 46.8104 134.983 47.3497V47.7368H136.208V48.9229H134.983V54.1971H133.209V48.9229Z" fill="#009EDB"/>
<path fill-rule="evenodd" clip-rule="evenodd" d="M142.819 54.1966H141.131V53.2959H141.094C140.644 54.0199 139.869 54.372 139.119 54.372C137.233 54.372 136.758 53.3076 136.758 51.7086V47.7363H138.532V51.3846C138.532 52.4479 138.845 52.9719 139.67 52.9719C140.632 52.9719 141.044 52.4338 141.044 51.1214V47.7363H142.819V54.1966Z" fill="#009EDB"/>
<path fill-rule="evenodd" clip-rule="evenodd" d="M146.904 52.6711C145.817 52.6711 145.469 51.6582 145.469 50.733C145.469 49.7726 145.905 48.8977 146.904 48.8977C148.056 48.8977 148.417 49.8346 148.417 50.8838C148.417 51.8091 147.918 52.6711 146.904 52.6711ZM150.104 47.7362H148.417V48.5983H148.39C147.968 47.8473 147.318 47.5596 146.467 47.5596C144.656 47.5596 143.694 49.0849 143.694 50.7587C143.694 52.5343 144.518 54.0093 146.456 54.0093C147.229 54.0093 148.004 53.6829 148.39 53.008H148.417V53.8584C148.429 54.7836 147.979 55.4574 146.993 55.4574C146.367 55.4574 145.83 55.2328 145.667 54.5719H143.905C143.991 56.0446 145.48 56.6458 146.755 56.6458C149.73 56.6458 150.104 54.8456 150.104 53.7835V47.7362Z" fill="#009EDB"/>
<path fill-rule="evenodd" clip-rule="evenodd" d="M152.766 50.2709C152.79 49.7726 153.116 48.8977 154.241 48.8977C155.103 48.8977 155.489 49.3726 155.652 50.2709H152.766ZM157.429 51.3962C157.553 49.4089 156.49 47.5596 154.29 47.5596C152.33 47.5596 150.992 49.0346 150.992 50.9716C150.992 52.9718 152.254 54.3719 154.29 54.3719C155.752 54.3719 156.816 53.7204 157.314 52.1963H155.752C155.64 52.5963 155.066 53.0338 154.353 53.0338C153.366 53.0338 152.816 52.5203 152.766 51.3962H157.429Z" fill="#009EDB"/>
<path fill-rule="evenodd" clip-rule="evenodd" d="M159.715 50.2709C159.74 49.7726 160.064 48.8977 161.189 48.8977C162.051 48.8977 162.438 49.3726 162.6 50.2709H159.715ZM164.374 51.3962C164.499 49.4089 163.438 47.5596 161.238 47.5596C159.275 47.5596 157.938 49.0346 157.938 50.9716C157.938 52.9718 159.202 54.3719 161.238 54.3719C162.701 54.3719 163.764 53.7204 164.263 52.1963H162.701C162.588 52.5963 162.013 53.0338 161.301 53.0338C160.313 53.0338 159.764 52.5203 159.715 51.3962H164.374Z" fill="#009EDB"/>
<path fill-rule="evenodd" clip-rule="evenodd" d="M171.549 47.4725H171.574L172.699 50.7465H170.388L171.549 47.4725ZM167.188 54.1971H169.174L169.875 52.2109H173.211L173.884 54.1971H175.923L172.587 45.2734H170.574L167.188 54.1971Z" fill="#009EDB"/>
<path fill-rule="evenodd" clip-rule="evenodd" d="M179.247 52.6711C178.159 52.6711 177.809 51.6582 177.809 50.733C177.809 49.7726 178.246 48.8977 179.247 48.8977C180.396 48.8977 180.759 49.8346 180.759 50.8838C180.759 51.8091 180.26 52.6711 179.247 52.6711ZM182.446 47.7362H180.759V48.5983H180.734C180.309 47.8473 179.659 47.5596 178.811 47.5596C176.996 47.5596 176.035 49.0849 176.035 50.7587C176.035 52.5343 176.861 54.0093 178.797 54.0093C179.571 54.0093 180.348 53.6829 180.734 53.008H180.759V53.8584C180.77 54.7836 180.322 55.4574 179.335 55.4574C178.71 55.4574 178.171 55.2328 178.011 54.5719H176.247C176.334 56.0446 177.822 56.6458 179.097 56.6458C182.071 56.6458 182.446 54.8456 182.446 53.7835V47.7362Z" fill="#009EDB"/>
<path fill-rule="evenodd" clip-rule="evenodd" d="M185.107 50.2709C185.132 49.7726 185.457 48.8977 186.582 48.8977C187.444 48.8977 187.833 49.3726 187.993 50.2709H185.107ZM189.77 51.3962C189.895 49.4089 188.832 47.5596 186.633 47.5596C184.669 47.5596 183.334 49.0346 183.334 50.9716C183.334 52.9718 184.595 54.3719 186.633 54.3719C188.096 54.3719 189.157 53.7204 189.655 52.1963H188.096C187.982 52.5963 187.406 53.0338 186.695 53.0338C185.708 53.0338 185.158 52.5203 185.107 51.3962H189.77Z" fill="#009EDB"/>
<path fill-rule="evenodd" clip-rule="evenodd" d="M190.544 47.7362H192.231V48.6345H192.268C192.718 47.9093 193.494 47.5596 194.243 47.5596C196.129 47.5596 196.605 48.6217 196.605 50.223V54.1964H194.831V50.5458C194.831 49.4849 194.517 48.9585 193.693 48.9585C192.73 48.9585 192.318 49.4954 192.318 50.8102V54.1964H190.544V47.7362Z" fill="#009EDB"/>
<path fill-rule="evenodd" clip-rule="evenodd" d="M202.077 50.0101C201.967 49.2837 201.503 48.8977 200.767 48.8977C199.629 48.8977 199.253 50.0475 199.253 50.9961C199.253 51.9225 199.616 53.0338 200.728 53.0338C201.553 53.0338 202.028 52.5097 202.141 51.7214H203.853C203.629 53.4326 202.44 54.3719 200.741 54.3719C198.791 54.3719 197.479 52.9963 197.479 51.0581C197.479 49.0474 198.679 47.5596 200.778 47.5596C202.304 47.5596 203.703 48.3596 203.814 50.0101H202.077Z" fill="#009EDB"/>
<path fill-rule="evenodd" clip-rule="evenodd" d="M207.816 55.0083C207.426 56.0447 206.814 56.4693 205.589 56.4693C205.227 56.4693 204.866 56.4459 204.503 56.4085V54.9452C204.841 54.9697 205.188 55.02 205.541 55.0083C206.151 54.9452 206.352 54.3077 206.151 53.7954L203.878 47.7363H205.778L207.24 52.1601H207.265L208.675 47.7363H210.514L207.816 55.0083Z" fill="#009EDB"/>
<path fill-rule="evenodd" clip-rule="evenodd" d="M95.9891 30.8071C95.9891 38.1318 92.0296 41.6479 83.9622 41.6479C75.8936 41.6479 71.8979 38.1318 71.8979 30.8071V14.5986H80.0379V28.9929C80.0379 31.6938 80.0379 35.0613 83.9997 35.0613C87.848 35.0613 87.848 31.6938 87.848 28.9929V14.5986H95.9891V30.8071Z" fill="#009EDB"/>
<path fill-rule="evenodd" clip-rule="evenodd" d="M100.873 14.5986H109.197L116.895 28.7333H116.969V14.5986H124.664V41.0175H116.748L108.643 26.5869H108.569V41.0175H100.873V14.5986Z" fill="#009EDB"/>
<path fill-rule="evenodd" clip-rule="evenodd" d="M129.661 14.5986H137.801V23.7749H145.425V14.5986H153.567V41.0175H145.425V30.5463H137.801V41.0175H129.661V14.5986Z" fill="#009EDB"/>
<path fill-rule="evenodd" clip-rule="evenodd" d="M174.399 24.4419C174.25 23.478 173.511 20.5561 170.143 20.5561C166.33 20.5561 165.109 24.2547 165.109 27.8082C165.109 31.3606 166.33 35.0615 170.143 35.0615C172.882 35.0615 173.955 33.1374 174.436 30.6576H182.429C182.429 35.9868 178.098 41.6481 170.364 41.6481C161.819 41.6481 156.969 35.6148 156.969 27.8082C156.969 19.4823 162.224 13.9707 170.364 13.9707C177.617 14.0058 181.616 17.8178 182.318 24.4419H174.399Z" fill="#009EDB"/>
<path fill-rule="evenodd" clip-rule="evenodd" d="M193.971 20.8858H197.786C200.892 20.8858 201.818 21.8484 201.818 23.5164C201.818 25.8827 199.745 26.1436 198.229 26.1436H193.971V20.8858ZM185.831 41.0175H193.971V31.8049H198.304C201.523 31.8049 201.742 34.432 201.967 36.9504C202.076 38.319 202.222 39.6875 202.632 41.0175H210.774C210.031 39.7975 209.997 36.6521 209.884 35.3585C209.588 32.0622 208.219 29.6211 205.998 28.7707C208.7 27.7694 209.96 24.885 209.96 22.1467C209.96 17.1486 205.961 14.5986 201.337 14.5986H185.831V41.0175Z" fill="#009EDB"/>
</svg>
