<svg width="23" height="16" viewBox="0 0 23 16" fill="none" xmlns="http://www.w3.org/2000/svg">
<path d="M0.195608 3.15289C0.298432 1.56986 1.57116 0.329256 3.15558 0.25076C5.44991 0.137088 8.7292 0 11.2 0C13.6708 0 16.9501 0.137088 19.2444 0.25076C20.8289 0.329256 22.1016 1.56986 22.2044 3.15289C22.3029 4.66952 22.4 6.53576 22.4 8C22.4 9.46424 22.3029 11.3305 22.2044 12.8471C22.1016 14.4302 20.8289 15.6707 19.2444 15.7493C16.9501 15.8629 13.6708 16 11.2 16C8.7292 16 5.44991 15.8629 3.15558 15.7493C1.57116 15.6707 0.298432 14.4302 0.195608 12.8471C0.097088 11.3305 0 9.46424 0 8C0 6.53576 0.097088 4.66952 0.195608 3.15289Z" fill="white"/>
<path d="M8.80005 4.66699V11.3337L15.2 8.00033L8.80005 4.66699Z" fill="#231D16"/>
</svg>
