<svg width="40" height="40" viewBox="0 0 40 40" fill="none" xmlns="http://www.w3.org/2000/svg">
<circle cx="20" cy="20" r="20" fill="#F4AA49"/>
<path fill-rule="evenodd" clip-rule="evenodd" d="M21.5801 13.0766C21.8858 13.2264 22.0522 13.5633 21.9854 13.8971L21.1648 18H25.25C25.5436 18 25.8103 18.1714 25.9322 18.4385C26.0542 18.7056 26.0091 19.0193 25.8168 19.2412L19.3168 26.7412C19.0938 26.9985 18.7256 27.0733 18.4199 26.9235C18.1142 26.7737 17.9478 26.4368 18.0146 26.103L18.8351 22H14.75C14.4564 22 14.1897 21.8287 14.0678 21.5616C13.9458 21.2945 13.9909 20.9807 14.1832 20.7588L20.6832 13.2588C20.9062 13.0016 21.2744 12.9268 21.5801 13.0766Z" fill="#0F172A"/>
</svg>
